<svg xmlns="http://www.w3.org/2000/svg" width="20" height="27" viewBox="0 0 20 27"><g><g><path fill="#97cd2d" d="M20.093 9.918c0 1.802-.808 3.738-.841 3.82-.261.619-.776 1.58-1.147 2.144L11.3 26.187c-.279.422-.69.664-1.13.664-.441 0-.853-.242-1.132-.665L2.234 15.882a15.974 15.974 0 0 1-1.147-2.145c-.034-.081-.841-2.018-.841-3.819 0-5.47 4.451-9.92 9.923-9.92s9.924 4.45 9.924 9.92zm-1.168 0c0-4.826-3.928-8.752-8.756-8.752S1.413 5.092 1.413 9.918c0 1.56.74 3.342.75 3.366.234.555.713 1.45 1.046 1.955l6.805 10.306c.134.203.177.203.311 0l6.805-10.306c.333-.506.812-1.4 1.045-1.954.008-.018.75-1.805.75-3.367zm-3.502 0a5.259 5.259 0 0 1-5.254 5.252A5.259 5.259 0 0 1 4.915 9.92a5.259 5.259 0 0 1 5.254-5.252 5.259 5.259 0 0 1 5.254 5.252zm-1.168 0a4.09 4.09 0 0 0-4.086-4.083 4.09 4.09 0 0 0-4.086 4.084 4.09 4.09 0 0 0 4.086 4.084 4.09 4.09 0 0 0 4.086-4.084z"/></g></g></svg>